<svg width="236" height="50" viewBox="0 0 236 50" fill="none" xmlns="http://www.w3.org/2000/svg">
<path d="M3.91562 36.1631H32.8366V24.9213H23.8645V24.2457L32.0614 14.5196V6.68823H4.50973V17.93H12.9354V18.6027L3.91562 28.3317V36.1631Z" fill="white"/>
<path d="M34.8845 36.1631H62.8936V26.5634H49.6388V24.8772H60.5235V17.9712H49.6388V16.288H62.6204V6.68823H34.8845V36.1631Z" fill="white"/>
<path d="M65.1234 36.1631H79.8333V30.9402L78.9215 27.1097H79.5601L83.614 36.1631H100.418L93.9046 26.4371C96.0904 24.6687 97.5042 21.9309 97.5042 17.8037C97.5042 9.71973 91.8554 6.68823 83.3853 6.68823H65.1234V36.1631ZM79.6967 20.0774V16.6669H80.5609C81.0184 16.6669 81.6093 16.8344 81.6093 17.51V19.2784C81.6093 19.7836 81.1995 20.0774 80.6085 20.0774H79.6967Z" fill="white"/>
<path d="M117.266 36.921C129.155 36.921 135.074 30.3528 135.074 21.4257C135.074 12.4987 129.155 5.93042 117.266 5.93042C105.381 5.93042 99.4587 12.4987 99.4587 21.4257C99.4587 30.3528 105.381 36.921 117.266 36.921ZM117.266 25.5088C116.583 25.5088 116.31 25.174 116.31 24.6687V18.2238C116.31 17.7186 116.583 17.3837 117.266 17.3837C117.997 17.3837 118.223 17.7186 118.223 18.2238V24.6687C118.223 25.174 117.997 25.5088 117.266 25.5088Z" fill="white"/>
<path d="M154.702 36.921C159.302 36.921 163.493 36.2043 166.771 34.9411V19.6573H154.657V24.5424H154.336C153.517 24.5424 152.789 23.4056 152.789 21.2583C152.789 18.4765 154.61 17.4248 158.162 17.4248C161.625 17.4248 163.81 17.8038 165.996 18.5617V7.57248C163.264 6.56198 159.575 5.93042 154.384 5.93042C143.407 5.93042 135.982 10.9418 135.982 21.4257C135.982 31.9537 143.407 36.921 154.702 36.921Z" fill="white"/>
<path d="M191.043 36.921C200.015 36.921 207.255 33.7632 207.255 23.9108V6.68823H191.999V24.2045C191.999 24.795 191.726 25.0476 191.043 25.0476C190.359 25.0476 190.086 24.795 190.086 24.2045V6.68823H174.83V23.9108C174.83 33.7632 182.07 36.921 191.043 36.921Z" fill="white"/>
<path d="M209.623 36.1631H224.879V6.68823H209.623V36.1631Z" fill="white"/>
</svg>
