<?xml version="1.0" ?><svg width="24px" height="24px" viewBox="0 0 24 24" xmlns="http://www.w3.org/2000/svg"><defs><style>.cls-1{fill:#ce5959;}.cls-2{fill:#b24040;}.cls-3{fill:#6c2e7c;}</style></defs><g id="Icons"><rect class="cls-1" height="4" rx="2" width="22" x="1" y="2"/><rect class="cls-2" height="4" rx="2" width="22" x="1" y="18"/><rect class="cls-1" height="4" rx="2" width="22" x="1" y="10"/></g><g data-name="Layer 4" id="Layer_4"><path class="cls-3" d="M21,1H3A3,3,0,0,0,3,7H21a3,3,0,0,0,0-6Zm0,4H3A1,1,0,0,1,3,3H21a1,1,0,0,1,0,2Z"/><path class="cls-3" d="M21,17H3a3,3,0,0,0,0,6H21a3,3,0,0,0,0-6Zm0,4H3a1,1,0,0,1,0-2H21a1,1,0,0,1,0,2Z"/><path class="cls-3" d="M21,9H3a3,3,0,0,0,0,6H21a3,3,0,0,0,0-6Zm0,4H3a1,1,0,0,1,0-2H21a1,1,0,0,1,0,2Z"/></g></svg>