<svg xmlns="http://www.w3.org/2000/svg" viewBox="0 0 64 64" aria-labelledby="title"
aria-describedby="desc" role="img" xmlns:xlink="http://www.w3.org/1999/xlink"
width="40" height="40">
  <title>Men</title>
  <desc>A color styled icon from Orion Icon Library.</desc>
  <path data-name="layer1"
  d="M50.4 51C40.5 49.1 40 46 40 44v-1.2a18.9 18.9 0 0 0 5.7-8.8h.1c3 0 3.8-6.3 3.8-7.3s.1-4.7-3-4.7C53 4 35.5-3.2 22.3 6c-5.4 0-5.9 8-3.9 16-3.1 0-3 3.8-3 4.7s.7 7.3 3.8 7.3c1 3.6 2.3 6.9 4.7 9v1.2c0 2 .5 5-9.5 6.8S2 62 2 62h60a14.6 14.6 0 0 0-11.6-11z"
  fill="#78d1f4"></path>
  <path data-name="opacity" d="M23.3 33c1 3.6 4.3 6.9 6.7 9v1.2c0 2 .5 5-9.5 6.8S8 61 8 61h53.7c.2.6.3 1 .3 1H2s2.6-9.2 12.5-11 9.5-4.8 9.5-6.8V43c-2.4-2.1-3.7-5.4-4.7-9-3 0-3.8-6.3-3.8-7.3s-.1-4.7 3-4.7c-2-8-1.6-16 3.9-16a21.3 21.3 0 0 1 12-4 22.9 22.9 0 0 0-6 3c-5.4 0-7.9 8-5.9 16 0 0-2 5 .8 12z"
  fill="#000064" opacity=".15"></path>
  <path data-name="stroke" d="M50.4 51C40.5 49.1 40 46 40 44v-1.2a18.9 18.9 0 0 0 5.7-8.8h.1c3 0 3.8-6.3 3.8-7.3s.1-4.7-3-4.7C53 4 35.5-3.2 22.3 6c-5.4 0-5.9 8-3.9 16-3.1 0-3 3.8-3 4.7s.7 7.3 3.8 7.3c1 3.6 2.3 6.9 4.7 9v1.2c0 2 .5 5-9.5 6.8S2 62 2 62h60a14.6 14.6 0 0 0-11.6-11z"
  fill="none" stroke="#2e4369" stroke-linecap="round" stroke-linejoin="round"
  stroke-width="2"></path>
</svg>